Coordinates
version=1
nRows=17
nColumns=23
inDegrees=yes

Units are S.I. units (second, meters, Newtons, ...)
If the header above contains a line with 'inDegrees', this indicates whether rotational values are in degrees (yes) or radians (no).

endheader
time	pelvis_tilt	pelvis_list	pelvis_rotation	pelvis_tx	pelvis_ty	pelvis_tz	hip_flexion_r	hip_adduction_r	hip_rotation_r	knee_angle_r	knee_angle_r_beta	ankle_angle_r	subtalar_angle_r	mtp_angle_r	hip_flexion_l	hip_adduction_l	hip_rotation_l	knee_angle_l	knee_angle_l_beta	ankle_angle_l	subtalar_angle_l	mtp_angle_l
      7.50000000	     -2.09849794	     -1.55699960	      5.04174414	      2.23448806	      1.00505279	      1.01717974	     29.76330287	     -4.47280073	    -10.68807076	     43.94051377	      0.76690664	      4.21621017	     -2.52953983	      0.00000000	    -16.95241107	     -3.78721833	     -9.45758261	     20.79086718	      0.36286909	    -13.59469490	      2.57358948	      0.00000000
      7.50666667	     -2.62955670	     -1.28120053	      4.23071716	      2.23596737	      1.00505668	      1.01876439	     29.70917906	     -4.28866880	    -11.03357401	     40.63739871	      0.70925641	      4.33514162	     -0.78430472	      0.00000000	    -16.45082180	     -3.51075361	     -9.94328088	     22.46345922	      0.39206132	    -13.90096187	      1.50814770	      0.00000000
      7.51333333	     -2.36863689	     -1.41011919	      3.92552596	      2.23778113	      1.00571161	      1.01960089	     28.52016435	     -4.03063126	    -12.56817869	     37.26387797	      0.65037736	      4.56442271	      1.86724717	      0.00000000	    -16.64773835	     -3.82182099	     -9.98447020	     24.32013034	      0.42446635	    -13.95572116	      0.34003117	      0.00000000
      7.52000000	     -2.29511434	     -1.44535934	      3.37368513	      2.23917493	      1.00549153	      1.02097992	     27.65366839	     -3.56235194	    -13.43486050	     34.16900100	      0.59636157	      4.57204934	      3.81928135	      0.00000000	    -16.46521106	     -4.00741423	    -10.25980719	     26.61461214	      0.46451261	    -13.75018530	     -0.82134560	      0.00000000
      7.52666667	     -2.50931910	     -1.27884925	      2.55208257	      2.24015164	      1.00425759	      1.02283754	     27.26491040	     -3.07159660	    -13.61595464	     31.49879955	      0.54975776	      4.52207245	      5.26788812	      0.00000000	    -15.82314905	     -3.91203126	    -10.63421145	     29.27011859	      0.51085994	    -13.30255125	     -2.16905246	      0.00000000
      7.53333333	     -1.94574724	     -1.69858475	      2.30346348	      2.24145493	      1.00363563	      1.02397437	     25.75366121	     -2.21572616	    -14.67699251	     28.73493299	      0.50151919	      4.31587499	      6.79172426	      0.00000000	    -15.82948405	     -4.64624904	    -10.69377446	     32.18651503	      0.56176066	    -12.89042324	     -3.17567641	      0.00000000
      7.54000000	     -1.66817979	     -1.89502241	      1.81831468	      2.24232046	      1.00200855	      1.02544979	     24.74447792	     -1.43893351	    -15.08589236	     26.49844672	      0.46248514	      4.03592199	      7.64591130	      0.00000000	    -15.38318281	     -5.06224156	    -10.76536103	     35.40796013	      0.61798549	    -12.31616974	     -4.44100026	      0.00000000
      7.54666667	     -1.52529419	     -1.95399048	      1.12644426	      2.24290134	      0.99959941	      1.02718488	     24.04526433	     -0.75352513	    -15.14440459	     24.82991231	      0.43336372	      3.91480605	      8.38816933	      0.00000000	    -14.70217247	     -5.24809872	    -10.86903116	     38.81752592	      0.67749363	    -11.66911126	     -5.91394685	      0.00000000
      7.55333333	     -0.81201437	     -2.56109908	      0.97063155	      2.24376200	      0.99762657	      1.02818907	     22.45193926	      0.38691758	    -15.54820039	     22.97195021	      0.40093617	      3.32337774	      8.15724232	      0.00000000	    -14.47789771	     -6.10523910	    -10.50692174	     42.37386199	      0.73956341	    -11.23657261	     -7.18571158	      0.00000000
      7.56000000	     -0.54194085	     -2.81411430	      0.57490756	      2.24417854	      0.99443006	      1.02940971	     21.64760997	      1.09357019	    -15.75148584	     22.01496707	      0.38423366	      3.09712255	      8.14882053	      0.00000000	    -13.64592125	     -6.46692901	    -10.11689821	     46.14127248	      0.80531713	    -10.67863616	     -8.68125408	      0.00000000
      7.56666667	     -0.08400674	     -3.06415004	      0.14214489	      2.24442568	      0.99095282	      1.03056292	     20.73743722	      1.74055986	    -15.90142149	     21.55160952	      0.37614655	      3.02577711	      7.88408481	      0.00000000	    -12.94680467	     -6.77040318	     -9.73350630	     49.95789014	      0.87192967	    -10.08119198	    -10.21554881	      0.00000000
      7.57333333	      0.33727383	     -3.49399253	      0.04847786	      2.24457571	      0.98717932	      1.03118554	     19.79740542	      2.48380041	    -16.11242228	     21.23987747	      0.37070579	      2.86642097	      6.98857695	      0.00000000	    -12.01850574	     -7.24025649	     -8.89711922	     53.90898833	      0.94088934	     -9.66458475	    -11.80867940	      0.00000000
      7.58000000	      0.81384409	     -3.87196842	     -0.05686212	      2.24455957	      0.98312652	      1.03174396	     18.88020509	      3.14368075	    -16.15865218	     21.36048456	      0.37281079	      2.91314077	      5.71455526	      0.00000000	    -11.07663102	     -7.60735051	     -8.06312652	     57.85915054	      1.00983268	     -9.25887615	    -13.36743817	      0.00000000
      7.58666667	      1.16889250	     -4.14964700	     -0.27189375	      2.24411603	      0.97863619	      1.03224503	     18.22328153	      3.75576877	    -15.62146524	     21.92584974	      0.38267827	      3.04995349	      3.55828595	      0.00000000	     -9.91820545	     -7.79975497	     -7.30769164	     61.82243149	      1.07900498	     -8.87180675	    -14.94671553	      0.00000000
      7.59333333	      1.96353634	     -4.56258001	     -0.40564064	      2.24363717	      0.97439072	      1.03260116	     17.17437847	      4.29234818	    -15.71747993	     23.00763007	      0.40155890	      3.90525511	      2.52719551	      0.00000000	     -9.22111442	     -8.24138783	     -6.75061094	     65.67657690	      1.14627251	     -8.36600712	    -16.14427595	      0.00000000
      7.60000000	      2.07874674	     -4.81050073	     -0.39240879	      2.24267095	      0.96929272	      1.03262793	     16.96338278	      4.67989385	    -15.37208457	     24.39745244	      0.42581587	      4.74945766	      0.50440391	      0.00000000	     -7.54198246	     -8.40051041	     -5.76727722	     69.66351092	      1.21585763	     -7.94482649	    -17.28971436	      0.00000000
      7.60666667	      2.88004519	     -5.23764662	     -0.39008699	      2.24166872	      0.96500226	      1.03257340	     16.01087674	      5.17988875	    -15.23003843	     26.00107993	      0.45380445	      6.20002242	     -0.73247558	      0.00000000	     -6.67014411	     -8.83881888	     -5.08462261	     73.37231838	      1.28058854	     -7.50604256	    -18.12297192	      0.00000000
